<svg height="512" viewBox="0 0 64 64" width="512" xmlns="http://www.w3.org/2000/svg"><path d="m6 43h2v2h-2z"/><path d="m57 2h-24a5.006 5.006 0 0 0 -5 5v22.926l-1.289 1.289c-.239-.107-.476-.2-.711-.294v-4.921a1 1 0 0 0 -1-1h-8a1 1 0 0 0 -1 1v4.921c-.235.09-.472.187-.711.294l-3.482-3.482a1 1 0 0 0 -1.414 0l-5.66 5.66a1 1 0 0 0 0 1.414l3.482 3.482c-.107.239-.2.476-.294.711h-4.921a1 1 0 0 0 -1 1v8a1 1 0 0 0 1 1h4.921c.09.235.187.472.294.711l-3.482 3.482a1 1 0 0 0 0 1.414l5.66 5.66a1 1 0 0 0 1.414 0l3.482-3.482c.239.107.476.2.711.294v4.921a1 1 0 0 0 1 1h8a1 1 0 0 0 1-1v-4.921c.235-.09.472-.187.711-.294l3.482 3.482a1 1 0 0 0 1.414 0l5.66-5.66a1 1 0 0 0 0-1.414l-3.192-3.193h22.925a5.006 5.006 0 0 0 5-5v-38a5.006 5.006 0 0 0 -5-5zm-26.1 56.146-3.273-3.273a1 1 0 0 0 -1.154-.187 12.323 12.323 0 0 1 -1.776.731 1 1 0 0 0 -.7.953v4.63h-5.997v-4.63a1 1 0 0 0 -.7-.953 12.323 12.323 0 0 1 -1.776-.731 1 1 0 0 0 -1.154.187l-3.27 3.273-4.246-4.246 3.273-3.273a1 1 0 0 0 .187-1.154 12.323 12.323 0 0 1 -.731-1.773 1 1 0 0 0 -.953-.7h-4.63v-6h4.63a1 1 0 0 0 .953-.7 12.323 12.323 0 0 1 .731-1.776 1 1 0 0 0 -.187-1.154l-3.273-3.27 4.246-4.246 3.273 3.273a1 1 0 0 0 1.154.187 12.323 12.323 0 0 1 1.776-.731 1 1 0 0 0 .7-.953v-4.63h6v4.63a1 1 0 0 0 .7.953 12.323 12.323 0 0 1 1.776.731 1 1 0 0 0 1.154-.187l.367-.373v12.246a4.992 4.992 0 0 0 3.591 4.773 1 1 0 0 0 .282.854l3.273 3.273zm29.1-13.146a3 3 0 0 1 -3 3h-24a3 3 0 0 1 -3-3v-38a3 3 0 0 1 3-3h24a3 3 0 0 1 3 3z"/><path d="m57 6h-24a1 1 0 0 0 -1 1v8a1 1 0 0 0 1 1h24a1 1 0 0 0 1-1v-8a1 1 0 0 0 -1-1zm-1 8h-22v-6h22z"/><path d="m57 20h-24a1 1 0 0 0 -1 1v24a1 1 0 0 0 1 1h24a1 1 0 0 0 1-1v-24a1 1 0 0 0 -1-1zm-1 8h-6v-6h6zm-22 2h6v6h-6zm8 0h6v6h-6zm6-2h-6v-6h6zm-14-6h6v6h-6zm0 16h6v6h-6zm8 0h6v6h-6zm14 6h-6v-14h6z"/><path d="m21 37a7 7 0 1 0 7 7 7.008 7.008 0 0 0 -7-7zm0 12a5 5 0 1 1 5-5 5.006 5.006 0 0 1 -5 5z"/><path d="m56 52h-15a1 1 0 0 0 0 2h15a1 1 0 0 0 0-2z"/><path d="m61 52h-1a1 1 0 0 0 0 2h1a1 1 0 0 0 0-2z"/><path d="m25 22a1 1 0 0 0 1-1v-12a1 1 0 0 0 -2 0v12a1 1 0 0 0 1 1z"/><path d="m25 6a1 1 0 0 0 1-1v-1a1 1 0 0 0 -2 0v1a1 1 0 0 0 1 1z"/><path d="m20 29h2v2h-2z"/><path d="m10.101 33.101h2v2h-2z" transform="matrix(.707 -.707 .707 .707 -20.861 17.837)"/><path d="m10.101 52.9h2v2h-2z" transform="matrix(.707 -.707 .707 .707 -34.861 23.636)"/><path d="m20 57h2v2h-2z"/><path d="m29.9 52.9h2v2h-2z" transform="matrix(.707 -.707 .707 .707 -29.062 37.636)"/></svg>