<?xml version="1.0"?>
<svg xmlns="http://www.w3.org/2000/svg" viewBox="0 0 64 64" width="512" height="512"><g id="Content_management" data-name="Content management"><path d="M23,19H45a1,1,0,0,0,1-1V13a1,1,0,0,0-1-1H23a1,1,0,0,0-1,1v5A1,1,0,0,0,23,19Zm1-5H44v3H24Z"/><path d="M13,37H25a1,1,0,0,0,1-1V24a1,1,0,0,0-1-1H13a1,1,0,0,0-1,1V36A1,1,0,0,0,13,37Zm1-12H24V35H14Z"/><path d="M45,23H31a1,1,0,0,0,0,2H45a1,1,0,0,0,0-2Z"/><path d="M45,27H31a1,1,0,0,0,0,2H45a1,1,0,0,0,0-2Z"/><path d="M45,31H31a1,1,0,0,0,0,2H45a1,1,0,0,0,0-2Z"/><path d="M39,35H31a1,1,0,0,0,0,2h8a1,1,0,0,0,0-2Z"/><path d="M33,41H13a1,1,0,0,0,0,2H33a1,1,0,0,0,0-2Z"/><path d="M33,45H13a1,1,0,0,0,0,2H33a1,1,0,0,0,0-2Z"/><path d="M33,49H13a1,1,0,0,0,0,2H33a1,1,0,0,0,0-2Z"/><path d="M61,45H58.659l1.657-1.652a1,1,0,0,0,0-1.415l-4.25-4.25a1,1,0,0,0-.707-.293h0a1,1,0,0,0-.707.294L53,39.341V37a1,1,0,0,0-1-1V7a1,1,0,0,0-1-1H48V3a1,1,0,0,0-1-1H13a1,1,0,0,0-.707.293l-10,10A1,1,0,0,0,2,13V53a1,1,0,0,0,1,1H6v3a1,1,0,0,0,1,1H39.616l2.317,2.317a1,1,0,0,0,.707.293h0a1,1,0,0,0,.707-.294L45,58.659V61a1,1,0,0,0,1,1h6a1,1,0,0,0,1-1V58.659l1.652,1.657a1,1,0,0,0,.707.294h0a1,1,0,0,0,.707-.293l4.25-4.25a1,1,0,0,0,0-1.415L58.659,53H61a1,1,0,0,0,1-1V46A1,1,0,0,0,61,45ZM14,4H46V6H17a1,1,0,0,0-.707.293L14,8.586Zm2,5.414V16H9.414Zm-4-4v5.172L10.586,12H5.414ZM6.293,16.293A1,1,0,0,0,6,17V52H4V14H8.586ZM8,18h9a1,1,0,0,0,1-1V8H50V36H46a1,1,0,0,0-1,1v2.341l-1.652-1.657a1,1,0,0,0-.707-.294h0a1,1,0,0,0-.707.293l-4.25,4.25a1,1,0,0,0,0,1.415L39.341,45H37a1,1,0,0,0-1,1v6a1,1,0,0,0,1,1h2.341l-1.657,1.652A.976.976,0,0,0,37.638,56H8ZM60,51H56.24a1,1,0,0,0-.679,1.734l.047.044c.018.02.037.041.056.06L58.2,55.361,55.361,58.2l-2.523-2.531c-.019-.019-.039-.037-.059-.055l-.045-.048A1,1,0,0,0,51,56.24V60H47V56.24a1,1,0,0,0-1.734-.679l-.044.047c-.02.018-.041.037-.06.056L42.639,58.2l-2.834-2.834,2.531-2.523c.019-.019.037-.039.055-.059l.048-.045A1,1,0,0,0,41.76,51H38V47h3.76a1,1,0,0,0,.679-1.734l-.047-.044c-.018-.02-.037-.041-.056-.06l-2.531-2.523,2.834-2.834,2.523,2.531c.019.019.039.037.059.055l.045.048A1,1,0,0,0,47,41.76V38h4v3.76a1,1,0,0,0,1.734.679l.044-.047c.02-.018.041-.037.06-.056l2.523-2.531L58.2,42.639l-2.531,2.523c-.019.019-.037.039-.055.059l-.048.045A1,1,0,0,0,56.24,47H60Z"/><path d="M49,44a5,5,0,1,0,5,5A5.006,5.006,0,0,0,49,44Zm0,8a3,3,0,1,1,3-3A3,3,0,0,1,49,52Z"/></g></svg>
